<?xml version="1.0" encoding="UTF-8"?>
<!DOCTYPE svg  PUBLIC '-//W3C//DTD SVG 1.1//EN'  'http://www.w3.org/Graphics/SVG/1.1/DTD/svg11.dtd'>
<svg version="1.1" viewBox="0 0 192 192" xmlns="http://www.w3.org/2000/svg" xmlns:xlink="http://www.w3.org/1999/xlink">
<defs>
<path id="a" d="m160.75 19.83l0.51 0.05 0.51 0.08 0.51 0.09 0.49 0.11 0.49 0.13 0.48 0.15 0.47 0.17 0.47 0.19 0.45 0.2 0.45 0.22 0.43 0.23 0.43 0.26 0.41 0.26 0.4 0.29 0.39 0.3 0.38 0.31 0.37 0.33 0.35 0.34 0.34 0.35 0.33 0.37 0.31 0.38 0.3 0.39 0.29 0.4 0.26 0.41 0.26 0.43 0.23 0.43 0.22 0.45 0.2 0.45 0.19 0.47 0.17 0.47 0.15 0.48 0.13 0.49 0.11 0.49 0.09 0.51 0.08 0.51 0.05 0.51 0.03 0.52 0.01 0.53v126.44l-0.01 0.52-0.03 0.52-0.05 0.51-0.08 0.5-0.09 0.5-0.11 0.48-0.13 0.49-0.14 0.47-0.17 0.47-0.18 0.45-0.2 0.45-0.22 0.44-0.23 0.43-0.25 0.42-0.27 0.41-0.28 0.4-0.29 0.38-0.31 0.37-0.32 0.37-0.34 0.35-0.35 0.33-0.36 0.32-0.37 0.31-0.39 0.3-0.39 0.28-0.41 0.26-0.42 0.25-0.43 0.23-0.44 0.22-0.45 0.2-0.46 0.18-0.46 0.17-0.48 0.15-0.48 0.13-0.49 0.11-0.49 0.09-0.51 0.07-0.51 0.05-0.51 0.03-0.52 0.01h-21.59l-15.43-11.71h-55.95l-15.67 11.71h-18.47l-0.52-0.01-0.51-0.03-0.51-0.05-0.5-0.07-0.5-0.09-0.49-0.11-0.48-0.13-0.47-0.15-0.47-0.17-0.46-0.18-0.45-0.2-0.44-0.22-0.42-0.23-0.42-0.25-0.41-0.26-0.4-0.28-0.38-0.3-0.38-0.31-0.36-0.32-0.35-0.33-0.34-0.35-0.32-0.37-0.31-0.37-0.29-0.38-0.28-0.4-0.26-0.41-0.25-0.42-0.24-0.43-0.21-0.44-0.2-0.45-0.19-0.45-0.16-0.47-0.15-0.47-0.13-0.49-0.11-0.48-0.09-0.5-0.07-0.5-0.05-0.51-0.04-0.52-0.01-0.52v-126.61l0.01-0.52 0.04-0.51 0.05-0.51 0.07-0.51 0.09-0.49 0.11-0.49 0.13-0.48 0.15-0.48 0.16-0.46 0.19-0.46 0.2-0.45 0.21-0.44 0.24-0.43 0.25-0.42 0.26-0.41 0.28-0.39 0.29-0.39 0.31-0.37 0.32-0.36 0.34-0.35 0.35-0.34 0.36-0.32 0.38-0.31 0.38-0.29 0.4-0.28 0.41-0.27 0.42-0.25 0.42-0.23 0.44-0.22 0.45-0.2 0.46-0.18 0.47-0.17 0.47-0.14 0.48-0.13 0.49-0.11 0.5-0.09 0.5-0.08 0.51-0.05 0.51-0.03 0.52-0.01h126.94l0.53 0.01 0.52 0.03zm-14.64 94.15l-1.24 0.47-1.15 0.64-1.04 0.79-0.93 0.92-0.78 1.04-0.64 1.15-0.47 1.24-0.3 1.32-0.1 1.38 0.1 1.38 0.3 1.32 0.47 1.24 0.64 1.14 0.78 1.05 0.93 0.92 1.04 0.79 1.15 0.63 1.24 0.48 1.31 0.29 1.38 0.1 1.38-0.1 1.32-0.29 1.24-0.48 1.15-0.63 1.04-0.79 0.93-0.92 0.78-1.05 0.64-1.14 0.47-1.24 0.3-1.32 0.1-1.38-0.1-1.38-0.3-1.32-0.47-1.24-0.64-1.15-0.78-1.04-0.93-0.92-1.04-0.79-1.15-0.64-1.24-0.47-1.32-0.29-1.38-0.11-1.38 0.11-1.31 0.29zm-105.64 0l-1.24 0.47-1.15 0.64-1.04 0.79-0.92 0.92-0.79 1.04-0.63 1.15-0.48 1.24-0.29 1.32-0.1 1.38 0.1 1.38 0.29 1.32 0.48 1.24 0.63 1.14 0.79 1.05 0.92 0.92 1.04 0.79 1.15 0.63 1.24 0.48 1.32 0.29 1.38 0.1 1.38-0.1 1.32-0.29 1.24-0.48 1.15-0.63 1.04-0.79 0.92-0.92 0.79-1.05 0.64-1.14 0.47-1.24 0.29-1.32 0.1-1.38-0.1-1.38-0.29-1.32-0.47-1.24-0.64-1.15-0.79-1.04-0.92-0.92-1.04-0.79-1.15-0.64-1.24-0.47-1.32-0.29-1.38-0.11-1.38 0.11-1.32 0.29zm36.25-60.25l9.19 22-0.97 0.51-1.08 0.64-1.03 0.7-0.99 0.75-0.95 0.81-0.9 0.85-0.85 0.9-0.81 0.95-0.75 0.99-0.7 1.03-0.64 1.08-0.58 1.11-0.52 1.14-0.46 1.18-0.4 1.2-0.33 1.24-0.25 1.26-0.19 1.29-0.12 1.31-0.03 1.33 0.03 1.33 0.12 1.31 0.19 1.29 0.25 1.26 0.33 1.24 0.4 1.2 0.46 1.18 0.52 1.14 0.58 1.11 0.64 1.08 0.7 1.03 0.75 0.99 0.81 0.95 0.85 0.9 0.9 0.85 0.95 0.81 0.99 0.75 1.03 0.7 1.08 0.64 1.11 0.58 1.14 0.52 1.18 0.46 1.2 0.4 1.24 0.33 1.26 0.25 1.29 0.19 1.31 0.12 1.33 0.03 1.33-0.03 1.31-0.12 1.29-0.19 1.26-0.25 1.24-0.33 1.2-0.4 1.18-0.46 1.14-0.52 1.11-0.58 1.08-0.64 1.03-0.7 0.99-0.75 0.95-0.81 0.9-0.85 0.85-0.9 0.81-0.95 0.75-0.99 0.7-1.03 0.64-1.08 0.58-1.11 0.52-1.14 0.46-1.18 0.4-1.2 0.33-1.24 0.25-1.26 0.19-1.29 0.12-1.31 0.03-1.33-0.03-1.33-0.12-1.31-0.19-1.29-0.25-1.26-0.33-1.24-0.4-1.2-0.46-1.18-0.52-1.14-0.58-1.11-0.64-1.08-0.7-1.03-0.75-0.99-0.81-0.95-0.85-0.9-0.9-0.85-0.95-0.81-0.99-0.75-1.03-0.7-1.08-0.64-0.97-0.51 9.19-22v-8.37h-38.56v8.37zm-36.25-21.61l-1.24 0.47-1.15 0.64-1.04 0.79-0.92 0.92-0.79 1.04-0.63 1.15-0.48 1.24-0.29 1.32-0.1 1.38 0.1 1.38 0.29 1.31 0.48 1.24 0.63 1.15 0.79 1.05 0.92 0.92 1.04 0.78 1.15 0.64 1.24 0.47 1.32 0.3 1.38 0.1 1.38-0.1 1.32-0.3 1.24-0.47 1.15-0.64 1.04-0.78 0.92-0.92 0.79-1.05 0.64-1.15 0.47-1.24 0.29-1.31 0.1-1.38-0.1-1.38-0.29-1.32-0.47-1.24-0.64-1.15-0.79-1.04-0.92-0.92-1.04-0.79-1.15-0.64-1.24-0.47-1.32-0.3-1.38-0.1-1.38 0.1-1.32 0.3zm105.64 0l-1.24 0.47-1.15 0.64-1.04 0.79-0.93 0.92-0.78 1.04-0.64 1.15-0.47 1.24-0.3 1.32-0.1 1.38 0.1 1.38 0.3 1.31 0.47 1.24 0.64 1.15 0.78 1.05 0.93 0.92 1.04 0.78 1.15 0.64 1.24 0.47 1.31 0.3 1.38 0.1 1.38-0.1 1.32-0.3 1.24-0.47 1.15-0.64 1.04-0.78 0.93-0.92 0.78-1.05 0.64-1.15 0.47-1.24 0.3-1.31 0.1-1.38-0.1-1.38-0.3-1.32-0.47-1.24-0.64-1.15-0.78-1.04-0.93-0.92-1.04-0.79-1.15-0.64-1.24-0.47-1.32-0.3-1.37-0.1-1.39 0.1-1.31 0.3z"/>
</defs>
<use fill="#000000" xlink:href="#a"/>
</svg>
