<?xml version="1.0" encoding="UTF-8" standalone="no"?>
<!DOCTYPE svg PUBLIC "-//W3C//DTD SVG 1.1//EN" "http://www.w3.org/Graphics/SVG/1.1/DTD/svg11.dtd">
<svg version="1.1" xmlns="http://www.w3.org/2000/svg" xmlns:xlink="http://www.w3.org/1999/xlink" preserveAspectRatio="xMidYMid meet" viewBox="0 0 192 192" width="192" height="192"><defs><path d="M160.51 46.62L161.71 47.05L162.89 47.52L164.05 48.04L165.18 48.59L166.28 49.19L167.36 49.84L168.41 50.52L169.44 51.24L170.43 52L171.39 52.79L172.32 53.62L173.22 54.49L174.09 55.39L174.92 56.32L175.71 57.28L176.47 58.28L177.19 59.3L177.87 60.35L178.52 61.43L179.12 62.53L179.67 63.66L180.19 64.82L180.66 66L181.09 67.2L181.47 68.42L181.8 69.66L182.09 70.92L182.32 72.2L182.51 73.49L182.64 74.8L182.72 76.13L182.75 77.46L182.72 78.8L182.64 80.13L182.51 81.44L182.32 82.73L182.09 84.01L181.8 85.27L181.47 86.51L181.09 87.73L180.66 88.93L180.19 90.11L179.67 91.26L179.12 92.39L178.52 93.5L177.87 94.58L177.19 95.63L176.47 96.65L175.71 97.65L174.92 98.61L174.09 99.54L173.22 100.44L172.32 101.31L171.39 102.14L170.43 102.93L169.44 103.69L168.41 104.41L167.36 105.09L166.28 105.73L165.18 106.33L164.05 106.89L162.89 107.41L161.71 107.88L160.51 108.31L159.29 108.69L159.28 108.69L159.28 46.24L159.29 46.24L160.51 46.62Z" id="c2y1fLEtZS"></path><path d="" id="a6mmba7zf"></path><path d="M153.56 45.25L152.82 142.25L109.73 142.25C109.98 110.52 110.13 90.68 110.19 82.75C110.36 61.99 127.23 45.25 147.99 45.25C148.73 45.25 150.59 45.25 153.56 45.25Z" id="dWpEEFv8e"></path><path d="M102.74 77.76L102.74 142.17L59.65 142.17C59.65 128.29 59.65 119.61 59.65 116.14C59.66 94.94 76.84 77.76 98.04 77.76C98.66 77.76 100.23 77.76 102.74 77.76Z" id="b1PSRA6Ujq"></path><path d="M9.18 142.09L52.19 142.17L52.19 109.89L45.94 109.89C44.77 110.07 44.03 110.18 43.74 110.22C27.79 112.69 14.67 124.07 9.96 139.51C9.86 139.85 9.6 140.71 9.18 142.09Z" id="c8cI0ONwu6"></path></defs><g><g><g><use xlink:href="#c2y1fLEtZS" opacity="1" fill="#ffb71b" fill-opacity="1"></use></g><g><g><use xlink:href="#a6mmba7zf" opacity="1" fill-opacity="0" stroke="#ffffff" stroke-width="1" stroke-opacity="1"></use></g></g><g><use xlink:href="#dWpEEFv8e" opacity="1" fill="#ffffff" fill-opacity="1"></use></g><g><use xlink:href="#b1PSRA6Ujq" opacity="1" fill="#ffffff" fill-opacity="1"></use></g><g><use xlink:href="#c8cI0ONwu6" opacity="1" fill="#ffffff" fill-opacity="1"></use></g></g></g></svg>