<?xml version="1.0" encoding="UTF-8" standalone="no"?>
<!DOCTYPE svg PUBLIC "-//W3C//DTD SVG 1.1//EN" "http://www.w3.org/Graphics/SVG/1.1/DTD/svg11.dtd">
<svg version="1.1" xmlns="http://www.w3.org/2000/svg" xmlns:xlink="http://www.w3.org/1999/xlink" preserveAspectRatio="xMidYMid meet" viewBox="0 0 24 24" width="24" height="24"><defs><path d="M13.03 11.15L17 11.15C16.07 9.69 15.5 8.78 15.27 8.42C15.09 8.14 15 7.83 15 7.51C15 7.31 15 6.81 15 6L20 6C20 6.76 20 7.24 20 7.43C20 7.8 19.89 8.17 19.69 8.48C19.47 8.84 18.9 9.73 18 11.15C19.57 11.15 20.55 11.15 20.94 11.15C21.52 11.15 21.98 11.61 21.98 12.19C21.98 13.37 21.98 15.91 21.98 17.1C21.98 17.64 21.54 18.09 20.99 18.09C20.73 18.09 20.07 18.09 19.02 18.09L17.03 16.58L7.02 16.58L5.02 18.09C3.89 18.09 3.18 18.09 2.9 18.09C2.41 18.09 2.02 17.69 2.02 17.21C2.02 14.97 2 9.11 2 6.87C2 6.39 2.39 6 2.86 6C4.89 6 10 6 12 6C12.55 6 13 6.44 13 6.99C13 7.55 13.01 8.93 13.03 11.15Z" id="a5obWZ5MbF"></path><clipPath id="clipc2qNWEO5C"><use xlink:href="#a5obWZ5MbF" opacity="1"></use></clipPath><path d="M10 8L11 8L11 11L10 11L10 8Z" id="c2ZlCRWuPP"></path><path d="M7 8L8 8L8 11L7 11L7 8Z" id="aJQxYcBVX"></path></defs><g><g><g><use xlink:href="#a5obWZ5MbF" opacity="1" fill="#000000" fill-opacity="1"></use><g clip-path="url(#clipc2qNWEO5C)"><use xlink:href="#a5obWZ5MbF" opacity="1" fill-opacity="0" stroke="#000000" stroke-width="2" stroke-opacity="1"></use></g></g><g><use xlink:href="#c2ZlCRWuPP" opacity="1" fill="#ffffff" fill-opacity="1"></use></g><g><use xlink:href="#aJQxYcBVX" opacity="1" fill="#ffffff" fill-opacity="1"></use></g></g></g></svg>