<svg xmlns="http://www.w3.org/2000/svg" height="24" viewBox="0 0 192 192" width="24">
<path d="M98 172.32H32.5l-.53-.02-.52-.03-.52-.05-.52-.07-.5-.1-.5-.1-.5-.13-.48-.15-.48-.17-.46-.2-.46-.2-.45-.22-.44-.24-.42-.25-.42-.27-.4-.3-.4-.3-.38-.32-.37-.32-.36-.35-.34-.35-.33-.37-.3-.38-.3-.4-.3-.4-.27-.42-.25-.43-.24-.44-.22-.44-.2-.46-.18-.47-.17-.47-.15-.5-.14-.5-.1-.5-.1-.5-.07-.5-.06-.52-.03-.53-.01-.53.01-126.94.03-.54.06-.54.07-.53.1-.53.12-.52.13-.5.16-.5.18-.5.2-.5.2-.47.23-.46.25-.46.26-.44.28-.43.3-.43.3-.4.33-.4.34-.38.35-.37.37-.36.4-.34.4-.33.4-.3.42-.3.43-.28.45-.27.45-.24.46-.23.48-.22.48-.2.5-.17.5-.16.5-.14.52-.1.52-.1.54-.08.53-.05.55-.03.55-.02h65v29.36L68 62.8v66.97l30 13.76v28.8zm16-152.64l45.8.02.54.03.53.05.52.08.52.1.5.12.5.13.5.15.48.18.48.2.47.2.45.23.45.24.43.26.43.27.4.3.4.3.4.32.38.34.36.35.35.36.33.38.32.38.3.4.3.4.28.42.5.88.22.46.2.47.2.47.17.5.15.5.14.5.1.5.1.5.07.53.06.53.03.53.01.54-.04 127.42-.06.53-.07.52-.1.52-.1.5-.14.5-.15.5-.17.5-.2.48-.2.47-.23.45-.24.45-.26.44-.28.43-.3.4-.3.4-.32.4-.34.38-.35.37-.36.35-.38.33-.4.33-.4.3-.42.3-.43.28-.43.26-.45.24-.46.23-.47.2-.48.2-.48.17-.5.16-.5.13-.5.12-.52.1-.53.08-.53.05-.53.03-.55.02H114v-38.26l-29.45-13.2V71.72L114 58.5V19.68z"/>
</svg>